<?xml version="1.0" encoding="UTF-8"?>
<!DOCTYPE svg PUBLIC "-//W3C//DTD SVG 1.1//EN" "http://www.w3.org/Graphics/SVG/1.1/DTD/svg11.dtd">
<svg xmlns="http://www.w3.org/2000/svg" version="1.1" width="512px" height="512px" style="shape-rendering:geometricPrecision; text-rendering:geometricPrecision; image-rendering:optimizeQuality; fill-rule:evenodd; clip-rule:evenodd" xmlns:xlink="http://www.w3.org/1999/xlink">
<g><path style="opacity:1" fill="#598dca" d="M 237.5,1.5 C 343.274,-1.54457 423.44,41.7888 478,131.5C 511.792,194.961 518.792,261.295 499,330.5C 470.833,414.667 414.667,470.833 330.5,499C 243.438,522.787 164.438,507.121 93.5,452C 22.9571,390.073 -6.87624,312.24 4,218.5C 19.0248,131.511 65.5248,67.6777 143.5,27C 173.432,12.8529 204.765,4.35292 237.5,1.5 Z M 103.5,103.5 C 134.174,103.167 164.841,103.5 195.5,104.5C 220.842,141.185 246.675,177.518 273,213.5C 305.284,177.094 337.451,140.594 369.5,104C 379.167,103.333 388.833,103.333 398.5,104C 360.647,146.685 322.981,189.518 285.5,232.5C 326.556,290.223 367.223,348.223 407.5,406.5C 376.833,407.833 346.167,407.833 315.5,406.5C 288.528,367.695 261.361,329.028 234,290.5C 199.951,329.427 165.784,368.26 131.5,407C 122.149,407.832 112.816,407.665 103.5,406.5C 141.853,363.315 180.019,319.982 218,276.5C 218.85,274.99 219.683,273.49 220.5,272C 182.795,218.096 144.962,164.263 107,110.5C 105.295,108.423 104.128,106.09 103.5,103.5 Z"/></g>
<g><path style="opacity:1" fill="#598dca" d="M 154.5,139.5 C 166.007,138.176 177.673,138.176 189.5,139.5C 245.535,217.069 301.201,294.902 356.5,373C 344.819,373.833 333.152,373.666 321.5,372.5C 265.566,294.943 209.9,217.276 154.5,139.5 Z"/></g>
</svg>
